<?xml version="1.0" encoding="utf-8"?>
<!-- Generator: Adobe Illustrator 24.0.0, SVG Export Plug-In . SVG Version: 6.00 Build 0)  -->
<svg version="1.1" id="Layer_1" xmlns="http://www.w3.org/2000/svg" xmlns:xlink="http://www.w3.org/1999/xlink" x="0px" y="0px"
	 viewBox="0 0 256 256" enable-background="new 0 0 256 256" xml:space="preserve">
<g>
</g>
<g>
	<path fill="#EFBF27" d="M103.726,167.689H44.684c-1.657,0-3-1.343-3-3v-31.516c0-1.657,1.343-3,3-3h59.042c1.657,0,3,1.343,3,3
		v31.516C106.726,166.346,105.382,167.689,103.726,167.689z M122.279,164.689v-31.516c0-1.657,1.343-3,3-3h45.244
		c1.297,0,2.447,0.834,2.851,2.066l10.322,31.516c0.635,1.94-0.81,3.934-2.851,3.934h-55.565
		C123.622,167.689,122.279,166.346,122.279,164.689z M242.97,176.953l-36.005-3.861c-3.911-0.419-7.213-3.092-8.437-6.83
		l-13.898-42.429c-1.41-4.28-5.4-7.18-9.91-7.18H38.09c-5.75,0-10.4,4.66-10.4,10.42v88.14h37.64c8.57-11.94,26.62-12.55,35.66,0
		h78.27c8.92-12.43,27.4-11.85,35.65,0h34.25v-31.37C249.16,180.313,246.5,177.353,242.97,176.953z"/>
	<path fill="#E8A61E" d="M226.1,227.713h-7.02c-0.13-4.99-1.83-9.43-4.17-12.5c-8.25-11.85-26.73-12.43-35.65,0
		c-2.45,3.19-4.05,7.49-4.19,12.5h-7.01c0.01-0.12,0.01-0.23,0.02-0.35c0.14-4.37,1.21-8.49,3.02-12.15
		c4.71-9.59,14.49-16.11,26-16.11c11.32,0,21.22,6.39,25.98,16.11c1.79,3.63,2.85,7.73,3,12.14
		C226.09,227.473,226.1,227.593,226.1,227.713z"/>
	<path fill="#E8A61E" d="M112.17,227.713h-7.02c-0.13-4.99-1.83-9.44-4.16-12.5c-9.04-12.55-27.09-11.94-35.66,0h-0.02
		c-2.29,3.02-4.03,7.57-4.17,12.5h-7.01c0-0.12,0.01-0.24,0.02-0.36c0.15-4.43,1.22-8.52,3.02-12.14c-0.01-0.01,0-0.01,0-0.01
		c4.86-9.84,14.99-16.18,26.07-16.18c11.44,0,21.17,6.61,25.88,16.19c1.82,3.68,2.89,7.79,3.03,12.14
		C112.16,227.473,112.17,227.593,112.17,227.713z"/>
	<path fill="#72C1E8" d="M106.72,133.168v31.515c0,1.657-1.343,3-3,3H44.685c-1.657,0-3-1.343-3-3v-31.515c0-1.657,1.343-3,3-3
		h59.035C105.376,130.168,106.72,131.511,106.72,133.168z"/>
	<path fill="#878787" d="M27.68,161.733v41.95H12.04c-2.87,0-5.21-2.33-5.21-5.21v-31.53c0-2.88,2.34-5.21,5.21-5.21H27.68z"/>
	<path fill="#4C4945" d="M20.69,161.733v41.95h6.99v-41.95H20.69z"/>
	<path fill="#4C4945" d="M105.16,227.711c-0.139-4.984-1.84-9.438-4.18-12.508c-9.019-12.543-27.082-11.926-35.657,0
		c-2.299,3.016-4.042,7.566-4.18,12.508c-0.8,10.38,8.463,22.41,22.003,22.41C96.697,250.121,105.958,238.075,105.16,227.711z"/>
	<circle fill="#EFEFEF" cx="83.151" cy="228.073" r="10.708"/>
	<path fill="#72C1E8" d="M180.841,167.683h-55.567c-1.657,0-3-1.343-3-3v-31.515c0-1.657,1.343-3,3-3h45.248
		c1.297,0,2.447,0.834,2.851,2.066l10.319,31.515C184.328,165.689,182.882,167.683,180.841,167.683z"/>
	<path fill="#878787" d="M65.32,215.203c0,0,0,0.01-0.01,0.01c-2.29,3.02-4.03,7.57-4.17,12.5H32.89c-2.88,0-5.21-2.34-5.21-5.21
		v-7.3H65.32z"/>
	<path fill="#878787" d="M179.26,215.213c-2.45,3.19-4.05,7.49-4.19,12.5h-69.92c-0.13-4.99-1.83-9.44-4.16-12.5H179.26z"/>
	<path fill="#4C4944" d="M57.17,215.203h8.15c0,0,0,0.01-0.01,0.01c-2.29,3.02-4.03,7.57-4.17,12.5h-7.01
		c0-0.12,0.01-0.24,0.02-0.36c0.15-4.43,1.22-8.52,3.02-12.14V215.203z"/>
	<path fill="#4C4944" d="M112.17,227.713h-7.02c-0.13-4.99-1.83-9.44-4.16-12.5h8.13c1.82,3.68,2.89,7.79,3.03,12.14
		C112.16,227.473,112.17,227.593,112.17,227.713z"/>
	<path fill="#4C4945" d="M197.079,250.129c-13.558,0-22.797-12.054-22.004-22.414c0.137-5.016,1.736-9.307,4.182-12.505
		c8.925-12.424,27.402-11.85,35.657,0c2.337,3.075,4.032,7.517,4.168,12.505C219.889,238.061,210.623,250.129,197.079,250.129z"/>
	<path fill="#878787" d="M249.16,215.213v5.57c0,3.83-3.1,6.93-6.93,6.93h-23.15c-0.13-4.99-1.83-9.43-4.17-12.5H249.16z"/>
	<path fill="#4C4944" d="M171.1,215.213h8.16c-2.45,3.19-4.05,7.49-4.19,12.5h-7.01c0.01-0.12,0.01-0.23,0.02-0.35
		C168.22,222.993,169.29,218.873,171.1,215.213z"/>
	<path fill="#4C4944" d="M226.1,227.713h-7.02c-0.13-4.99-1.83-9.43-4.17-12.5h8.17c1.79,3.63,2.85,7.73,3,12.14
		C226.09,227.473,226.1,227.593,226.1,227.713z"/>
	<circle fill="#EFEFEF" cx="197.082" cy="228.073" r="10.708"/>
	<path fill="#FFFFFF" d="M249.17,205.198h-16.518c-3.21,0-5.813-2.602-5.813-5.813v-4.196c0-2.209,1.791-4,4-4h18.331V205.198z"/>
	<path fill="#EEEEEE" d="M128,9.898c-22.544,0-40.819,18.276-40.819,40.82c0,20.72,15.442,37.823,35.443,40.457l5.376,12.66
		l5.376-12.66c20.002-2.634,35.444-19.736,35.444-40.457C168.82,28.173,150.544,9.898,128,9.898z"/>
	<path fill="#13BF6D" d="M148.022,54.258c0,11.058-8.964,20.022-20.022,20.022s-20.022-8.964-20.022-20.022S128,19.257,128,19.257
		S148.022,43.2,148.022,54.258z"/>
	<path fill="#F7E4B0" d="M37.69,207.713c-1.381,0-2.5-1.119-2.5-2.5v-3c0-1.381,1.119-2.5,2.5-2.5s2.5,1.119,2.5,2.5v3
		C40.19,206.594,39.071,207.713,37.69,207.713z M37.69,194.713c-1.381,0-2.5-1.119-2.5-2.5v-16.57c0-1.381,1.119-2.5,2.5-2.5
		s2.5,1.119,2.5,2.5v16.57C40.19,193.594,39.071,194.713,37.69,194.713z"/>
	<path fill="#C5E5FF" d="M61.083,153.032c-0.977-0.976-0.977-2.559,0-3.535l9.358-9.358c0.976-0.977,2.56-0.977,3.535,0
		c0.977,0.976,0.977,2.559,0,3.535l-9.358,9.358C63.643,154.009,62.059,154.009,61.083,153.032z"/>
	<path fill="#C5E5FF" d="M74.429,157.711c-0.977-0.976-0.977-2.559,0-3.535l9.358-9.358c0.976-0.977,2.56-0.977,3.535,0
		c0.977,0.976,0.977,2.559,0,3.535l-9.358,9.358C76.988,158.688,75.404,158.688,74.429,157.711z"/>
	<path fill="#C5E5FF" d="M136.659,153.032c-0.977-0.976-0.977-2.559,0-3.535l9.358-9.358c0.976-0.977,2.56-0.977,3.535,0
		c0.977,0.976,0.977,2.559,0,3.535l-9.358,9.358C139.218,154.009,137.634,154.009,136.659,153.032z"/>
	<path fill="#C5E5FF" d="M150.004,157.711c-0.977-0.976-0.977-2.559,0-3.535l9.358-9.358c0.976-0.977,2.56-0.977,3.535,0
		c0.977,0.976,0.977,2.559,0,3.535l-9.358,9.358C152.564,158.688,150.98,158.688,150.004,157.711z"/>
	<path d="M125.838,180.207c-1.381,0-2.5,1.119-2.5,2.5s1.119,2.5,2.5,2.5h9.381c1.381,0,2.5-1.119,2.5-2.5s-1.119-2.5-2.5-2.5
		H125.838z"/>
	<path d="M83.151,241.282c7.283,0,13.208-5.925,13.208-13.208c0-7.283-5.925-13.208-13.208-13.208
		c-7.283,0-13.208,5.925-13.208,13.208C69.943,235.356,75.868,241.282,83.151,241.282z M83.151,219.865
		c4.526,0,8.208,3.682,8.208,8.208c0,4.526-3.682,8.208-8.208,8.208c-4.526,0-8.208-3.682-8.208-8.208
		C74.943,223.547,78.625,219.865,83.151,219.865z"/>
	<path d="M197.082,241.282c7.283,0,13.208-5.925,13.208-13.208c0-7.283-5.925-13.208-13.208-13.208
		c-7.283,0-13.208,5.925-13.208,13.208C183.874,235.356,189.799,241.282,197.082,241.282z M197.082,219.865
		c4.526,0,8.208,3.682,8.208,8.208c0,4.526-3.682,8.208-8.208,8.208c-4.526,0-8.208-3.682-8.208-8.208
		C188.874,223.547,192.556,219.865,197.082,219.865z"/>
	<path d="M39.497,131.36c-0.439,1.248-0.317-1.105-0.317,33.33c0.01,3.03,2.47,5.5,5.5,5.5h59.05c3.03,0,5.49-2.47,5.5-5.5v-31.52
		c-0.01-3.036-2.475-5.502-5.51-5.502H44.685C42.286,127.668,40.247,129.214,39.497,131.36z M103.72,132.67
		c0.28,0,0.5,0.243,0.5,0.5v31.51c0,0.275-0.216,0.5-0.5,0.5c-67.521,0-52.332,0-59.03,0c-0.212,0-0.389-0.127-0.467-0.31
		c-0.023-0.058-0.038-0.121-0.038-0.187v-31.515c0-0.285,0.236-0.498,0.505-0.498H103.72z"/>
	<path d="M186.07,162.97c-7.698-23.505-5.376-16.414-10.32-31.514c-0.724-2.209-2.789-3.788-5.227-3.788h-45.249
		c-3.062,0-5.495,2.504-5.504,5.502c0,2.271,0,28.202,0,31.51c0.009,2.99,2.433,5.51,5.51,5.51h55.56
		C184.397,170.167,187.272,166.705,186.07,162.97z M125.27,165.18c-0.258,0-0.49-0.207-0.49-0.49v-31.52c0-0.27,0.22-0.5,0.5-0.5
		h45.24c0.22,0,0.41,0.14,0.48,0.35c2.541,7.759,0.574,1.752,10.316,31.507c0.097,0.294-0.132,0.652-0.477,0.652H125.27z"/>
	<circle cx="60.13" cy="116.65" r="2.5"/>
	<path d="M50.13,114.15H38.09c-7.1,0-12.89,5.8-12.9,12.92v32.163H12.04c-4.251,0-7.71,3.458-7.71,7.71v31.53
		c0,4.251,3.458,7.71,7.71,7.71h13.15c0,10.683-0.01,5.634-0.01,16.32c0,4.251,3.458,7.71,7.71,7.71h25.754
		c0.724,11.174,10.707,22.408,24.501,22.408c13.803,0,23.788-11.248,24.512-22.411h64.919c0.725,10.997,10.407,22.343,24.502,22.42
		c14.093-0.077,23.778-11.435,24.503-22.42h20.647c5.2,0,9.43-4.23,9.43-9.43c0-14.121,0-23.078,0-36.94c0-4.8-3.62-8.83-8.41-9.37
		l-36.02-3.86c-2.93-0.32-5.41-2.33-6.32-5.13l-13.9-42.42c-1.76-5.33-6.7-8.91-12.29-8.91H70.13c-1.38,0-2.5,1.12-2.5,2.5
		s1.12,2.5,2.5,2.5h104.59c3.43,0,6.46,2.2,7.54,5.47l13.89,42.42c1.53,4.66,5.67,8.01,10.55,8.54l36,3.86
		c2.26,0.26,3.96,2.15,3.96,4.4v4.85h-15.82c-3.58,0-6.5,2.92-6.5,6.5v4.2c0,4.58,3.73,8.31,8.31,8.31h14.01v5.01h-30.49
		c-4.347-5.556-11.383-9.11-19.06-9.11h-0.05c-7.645,0-14.637,3.559-19.04,9.11h-75.37c-9.056-11.584-28.618-12.693-38.796-0.007
		H30.19V127.07c0-4.36,3.54-7.91,7.9-7.92h12.04c1.38,0,2.5-1.12,2.5-2.5S51.51,114.15,50.13,114.15z M25.18,201.183H12.04
		c-1.494,0-2.71-1.216-2.71-2.71v-31.53c0-1.494,1.216-2.71,2.71-2.71h13.14V201.183z M232.65,202.7c-1.82-0.01-3.31-1.49-3.31-3.31
		v-4.2c0-0.83,0.67-1.5,1.5-1.5h15.82v9.01H232.65z M246.66,217.71v3.07c0,2.44-1.99,4.43-4.43,4.43H221.4
		c-0.289-2.382-1.037-5.181-2.1-7.5H246.66z M197.09,208.61c10.96,0,19.236,8.654,19.49,19.17l0.01,0.13
		c0.742,8.98-7.557,19.72-19.51,19.72c-11.526,0-19.59-9.919-19.55-18.67C177.53,216.783,186.562,208.626,197.09,208.61z
		 M174.84,217.71c-1.076,2.327-1.813,5.111-2.09,7.5h-65.261c-0.295-2.781-0.952-5.279-1.901-7.5H174.84z M63.636,227.903
		c0.003-0.041,0.005-0.082,0.006-0.123c0.001-0.036,0.004-0.071,0.005-0.107c0.341-10.127,8.04-18.974,19.617-18.974
		c11.317,0,19.137,8.978,19.386,19.08c0.001,0.046,0.013,0.09,0.017,0.135c0.681,8.938-7.454,19.706-19.521,19.706
		C71.09,247.621,62.945,236.861,63.636,227.903z M60.809,217.71c-0.995,2.24-1.684,4.742-1.99,7.503H32.89
		c-1.494,0-2.71-1.216-2.71-2.71v-4.793H60.809z"/>
	<path d="M90.46,42.98c0.28-1.35-0.6-2.67-1.95-2.95c-1.33-0.27-2.68,0.63-2.95,1.95c-0.27,1.35,0.6,2.67,1.95,2.95
		C88.735,45.218,90.166,44.401,90.46,42.98z"/>
	<path d="M84.72,52.52c0.856,20.664,16.154,37.6,36.15,40.92l4.83,11.37c0.853,2.032,3.755,2.013,4.6,0l4.83-11.37
		c20.677-3.433,36.19-21.387,36.19-42.72c0-23.893-19.328-43.32-43.32-43.32c-17.051,0-32.002,9.886-39.05,24.55
		c-0.607,1.256-0.068,2.751,1.17,3.34c1.2,0.58,2.75,0.03,3.33-1.17C99.81,20.92,113.37,12.4,128,12.4
		c21.059,0,38.32,17.023,38.32,38.32c0,19.15-14.3,35.48-33.27,37.98c-0.88,0.11-1.63,0.69-1.98,1.5L128,97.44l-3.08-7.24
		c-0.34-0.81-1.1-1.39-1.97-1.5c-18.5-2.44-32.48-17.74-33.24-36.38c-0.05-1.38-1.23-2.44-2.6-2.4
		C85.783,49.98,84.656,51.106,84.72,52.52z"/>
	<path d="M128,84.64c1.38,0,2.5-1.13,2.5-2.51v-5.493c11.246-1.248,20.021-10.806,20.021-22.379
		c0-11.629-18.495-34.083-20.604-36.604c-0.983-1.176-2.835-1.199-3.836,0c-6.466,7.732-20.604,26.498-20.604,36.604
		c0,11.573,8.776,21.131,20.021,22.379v5.493C125.5,83.51,126.62,84.64,128,84.64z M130.5,26.438c1.744,2.3,3.664,4.945,5.534,7.708
		L130.5,39.68V26.438z M130.5,46.74l8.316-8.316c3.733,5.999,6.705,12.004,6.705,15.834c0,8.81-6.543,16.102-15.021,17.322V46.74z
		 M125.5,26.44v28.9l-11.466-11.466C117.143,37.982,121.734,31.409,125.5,26.44z M110.479,54.258c0-1.546,0.49-3.452,1.314-5.565
		L125.5,62.4v9.18C117.022,70.36,110.479,63.068,110.479,54.258z"/>
</g>
</svg>
